<?xml version="1.0"?>
<svg xmlns="http://www.w3.org/2000/svg" xmlns:xlink="http://www.w3.org/1999/xlink" version="1.1" id="Capa_1" x="0px" y="0px" viewBox="0 0 60 60" style="enable-background:new 0 0 60 60;" xml:space="preserve" width="512px" height="512px"><g transform="matrix(6.12323e-17, 1, -1, 6.12323e-17, 60, -3.55271e-15)"><g>
	<path d="M14,23v33.536C14,58.446,15.554,60,17.464,60h25.072C44.446,60,46,58.446,46,56.536V23H14z" data-original="#000000" class="active-path" data-old_color="#000000" fill="#DCDCCC"/>
	<path d="M46,21V7.464C46,5.554,44.446,4,42.536,4H36V0H24v4h-6.536C15.554,4,14,5.554,14,7.464V21H46z M16,7.464   C16,6.656,16.656,6,17.464,6H24h12h6.536C43.344,6,44,6.656,44,7.464V19H16V7.464z" data-original="#000000" class="active-path" data-old_color="#000000" fill="#DCDCCC"/>
</g></g> </svg>
